<?xml version="1.0" encoding="UTF-8"?>
<svg id="Camada_1" data-name="Camada 1" xmlns="http://www.w3.org/2000/svg" viewBox="0 0 218.21 270.19">
  <defs>
    <style>
      .cls-1 {
        fill: #000002;
        fill-rule: evenodd;
        stroke-width: 0px;
      }
    </style>
  </defs>
  <path class="cls-1" d="M100.53,247.08l-.3,1.17.3-1.17ZM100.53,247.08l21.06-85.84c.37-1.56.33-1.65.62-3.18.36-1.93,0-1.4,1.12-2.68,0,5.25,1.76,23.03,6.51,24.42,3.78-.08,6.13-3.12,8.31-5.2,2.35-2.23,4.91-6.78,6.34-7.82-.8,3.45-8.24,16.63-10.32,20.61l-10.84,20.09c-.9,1.75-1.8,3.02-2.72,4.88l-16.79,29.88c-.88,1.47-2.06,3.96-3.29,4.85h0ZM134.71,168.94,134.71,168.94c1.56-1.42,3.11-2.58,4.35-4.33.73-1.02,1.18-1.75,2.02-2.85,6.78-8.93,10.45-37.27,10.45-49.25,0-5.63.11-30.63-.78-36.04l-.31-5.74c-1.64,1.1-2.73,2.47-4.2,3.94l-8.41,7.87c-5.5,5.44-5.49.8-6.4,17.47l-3.42,28.63c-.48,3.71,2.67,29.94,3.85,34.99.65,2.77.71,3.68,2.83,5.3h0ZM46.81,39.8c11.42,0,25.36,64.21,26.9,72.94.79,4.48,1.46,8.2,2.4,12.25l-17.67,13.27c-.33.26-.8.69-.88.76l-17.8,11.48c-3.3-14.16-5.97-43.22-5.97-58.6,0-10.5.65-21.4,2.39-30.16.81-4.07,2.17-9.48,3.58-12.7,1.07-2.45,4.05-9.23,7.05-9.23h0ZM123.86,108.71h-.54c0-8.51-3.67-13.09,2.17-14.65-.47.97-1.63,12.8-1.63,14.65h0ZM83.17,120.11c0-15.22.04-29.69,2-43.03,1.55-10.51,2.77-17.65,6.59-27.06,1.23-3.03,2.8-4.53,4.98-6.42,3.92,2.08,3.57,1.57,6.21,6.35,4.3,7.79,11.7,36.96,11.7,44.11l-31.47,26.04h0ZM133.09,77.79c.4-4.85,1.27-10.71,1.61-15.75l3.97-39.91c.12-.96.28-2.35.47-3.95.13-1.11.08-.96.3-1.87l.71-2c.24,2.84,1.54,5.86,2.13,8.73,2.13,10.42,6.49,27.29,7.06,37.52.13,2.27-.52,2.43-1.7,3.57-1.14,1.09-1.88,1.83-3.01,2.96-1.84,1.84-3.52,3.74-5.43,5.42-1.26,1.11-1.73,1.19-3,2.43-1.86,1.83-1.41,2.3-3.1,2.86h0ZM151.54,154.83c.18-2.21,1.85-5.39,2.67-9.23,2.03-9.46,4.28-22.79,4.4-32.52.06-4.82.06-30.45-.71-36.23-1.48-11.07-2.75-11.71,4.65-17.89l29.21-26.13c9.68-7.64,8.46-6.45,18.38-13.09-.48,6.13-16.42,46.21-19.15,53.02-.67,1.68-1.02,2.51-1.65,4.26-.06.16-.22.62-.28.78-.05.13-.1.27-.15.39-4.84,12.47-15.36,34.27-20.55,44.64-1.34,2.69-2.56,5.12-3.98,7.96l-12.84,24.06h0ZM120.61,88.64c0-5.81-1.71-11.17-2.76-16.23-2.17-10.46-7.47-35.86-21.12-35.86-3.45,0-5.3,2.15-7.17,4.19-.07.08-.18.2-.25.27-7.8,8.8-9.75,23.64-11.08,35.1-.6,5.19-1.58,12.47-1.58,17.95h-.54c0-5.45-2.52-12.58-4.11-18.14-3.79-13.26-8.2-33.41-18.83-41.94-5.02-4.03-11.64-.77-14.98,3.71-2.22,2.99-3.61,5.72-5.32,9.33-1.54,3.25-6.14,20.57-4.52,24.79-1.75-1.51-1.54-4.85-1.93-7.29-1.43-9.04-6.07-37.26-10.45-43.27-1.98-2.71-2.29-2.61-6.61-2.61-.06.12-.18.15-.22.34-.03.19-.17.27-.21.34-1.39,2.28-1.55,4.55-.88,7.14.71,2.73,1.89,4.97,3.27,7.05,6.78,10.28,12.1,57.95,14.47,75.18.02.17.05.3.08.47l1.44,10.38c.84,6.09,1.91,11.65,2.78,17.84.46,3.31,2.1,15.25,3.16,17.46-2.15,1.14-3.45,2.18-5.78,3.44l-7.21,4.27c-.33.2-.82.47-1.35.76-2.99,1.65-5.92,4.25-9.54,4.56.66-2.81,4.07-8.68-.54-8.68-2.49,0-14.65,17.36-5.43,17.36s26.49-13.47,30.93-14.65c0,3.17.29,3.08.95,5.65,1.22,4.73,1.58,11.75,7.73,12.26l.61-.48c.32-.31.34-.15.8-.82,2.29-3.37-.33-9.18-1.35-12.33-.74-2.31-1.69-5.74-1.69-8.62,7.8-5.85,20.4-13.58,30.84-21.25,1.44-1.06,3.05-2.25,4.42-3.17,1.25,5.37,1.71,12.55,2.63,17.98,1.02,6,.67,14.03,7.13,14.03,1.3,0,1.6-.88,2.71-1.63,0-3.59-.82-6.82-.47-9.68.68-5.56-4.24-17.51-4.95-26.13,7.8-5.22,14.67-11.36,21.89-17.2l5.92-4.92c2.01-1.79,1.63-2.02,4.21-3.39.15,6.55,2.3,14.9,3.41,21.55.58,3.48,1.68,6.96.85,10.34-2.54,10.36-4.03,21.39-6.54,32.02-5,21.2-8.01,38.16-14.73,61.23-2.88,9.87-5.33,19.74-8.56,29.42-.87,2.61-5.68,12.34.24,13.39,5.31.94,16.45-19.96,18.52-23.39,6.23-10.36,11.87-20.63,17.7-31.17,1.55-2.79,2.64-5.07,4.14-7.77,1.39-2.52,2.97-4.82,4.34-7.6l12.65-23.7c.76-1.46,1.42-2.32,2.18-3.78.74-1.43,1.41-2.92,2.16-4.35.76-1.46,1.42-2.32,2.18-3.78l32.54-64.58c.66-1.48,1.05-2.57,1.82-4.15,6.85-14.25,11.9-28.41,17.72-43.52,1.08-2.79,2.27-6.07,3.19-8.81,1.6-4.78,13.99-33.03,6.03-33.03-5.52,0-16.36,8.48-20.7,11.8l-3.79,2.77c-2.76,2.02-4.99,3.86-7.53,5.97l-5.28,4.64c-.69.63-.99.94-1.68,1.49-6.09,4.79-11.53,10.66-17.28,15.82-1.51,1.36-2,2.57-3.96,3.09,0-8.4-8.15-49.12-12.86-54.43-2.03-2.29-5.25-2.23-7.03.36-4.02,5.86-7.6,67.9-9.41,80.66-.35,2.45-2.97,5.31-5.43,5.97Z"/>
</svg>